<?xml version="1.0" encoding="utf-8"?>
<!-- Generator: Adobe Illustrator 16.0.0, SVG Export Plug-In . SVG Version: 6.00 Build 0)  -->
<!DOCTYPE svg PUBLIC "-//W3C//DTD SVG 1.1 Tiny//EN" "http://www.w3.org/Graphics/SVG/1.1/DTD/svg11-tiny.dtd">
<svg version="1.1" baseProfile="tiny" id="Layer_1" xmlns="http://www.w3.org/2000/svg" xmlns:xlink="http://www.w3.org/1999/xlink"
	 x="0px" y="0px" width="178.897px" height="28.011px" viewBox="0 0 178.897 28.011" xml:space="preserve">
<g>
	<g>
		<path fill="#4A4B4C" d="M36.91,7.09h3.459c1.305,0,2.672,0,3.563,1.305c0.621,0.891,0.85,1.988,0.85,3.086
			c0,1.533-0.498,2.963-1.43,3.666c-0.912,0.656-2.133,0.656-2.838,0.656h-0.828v5.066H36.91V7.09z M39.686,13.387h0.684
			c0.953,0,1.471-0.332,1.471-2.135c0-1.117-0.291-1.988-1.471-1.988h-0.684V13.387z"/>
		<path fill="#4A4B4C" d="M50.516,7.09l3.129,13.779h-2.859l-0.559-2.967h-2.734l-0.539,2.967h-2.547l3.17-13.779H50.516z
			 M49.916,15.682l-0.768-3.684c-0.123-0.559-0.227-1.076-0.289-2.318c-0.082,0.578-0.166,1.346-0.332,2.193l-0.744,3.809H49.916z"
			/>
		<path fill="#4A4B4C" d="M53.373,7.09h2.941l1.117,6.711c0.041,0.248,0.311,2.086,0.457,3.709c0.061-0.986,0.207-2.363,0.434-3.709
			l1.201-6.711h2.445l-2.9,13.779h-2.879L53.373,7.09z"/>
		<path fill="#4A4B4C" d="M66.213,12.723h3.334v2.299h-3.334v3.436h4.348v2.412h-7.186V7.09h7.186v2.424h-4.348V12.723z"/>
		<path fill="#4A4B4C" d="M72.258,7.09h2.838v11.244h3.5v2.535h-6.338V7.09z"/>
		<path fill="#4A4B4C" d="M84.891,7.09h2.836v13.779h-2.836V7.09z"/>
		<path fill="#4A4B4C" d="M95.115,10.984c-0.332-1.348-0.973-1.617-1.574-1.617c-1.139,0-1.201,1.119-1.201,1.348
			c0,1.014,0.436,1.221,2.465,2.154c0.85,0.414,2.631,1.242,2.631,3.861c0,2.549-1.512,4.346-4.184,4.346
			c-3.145,0-3.807-2.373-4.055-3.709l2.252-0.781c0.332,1.459,0.809,2.018,1.803,2.018c1.285,0,1.408-1.113,1.408-1.441
			c0-0.926-0.623-1.318-1.16-1.564c-1.738-0.865-2.586-1.258-3.186-2.211c-0.371-0.58-0.621-1.43-0.621-2.301
			c0-2.09,1.324-4.203,3.766-4.203c2.838,0,3.541,2.381,3.77,3.168L95.115,10.984z"/>
		<path fill="#4A4B4C" d="M99.133,7.09h3.459c1.305,0,2.672,0,3.563,1.305c0.621,0.891,0.848,1.988,0.848,3.086
			c0,1.533-0.498,2.963-1.428,3.666c-0.912,0.656-2.133,0.656-2.838,0.656h-0.828v5.066h-2.775V7.09z M101.908,13.387h0.684
			c0.951,0,1.471-0.332,1.471-2.135c0-1.117-0.291-1.988-1.471-1.988h-0.684V13.387z"/>
		<path fill="#4A4B4C" d="M108.307,7.09h3.563c1.49,0,2.34,0.082,3.064,0.746c1.283,1.201,1.283,2.836,1.283,3.355
			c0,2.609-1.158,3.334-1.801,3.727l2.092,5.951h-2.982l-1.553-5.396h-0.891v5.396h-2.775V7.09z M111.082,13.199h0.787
			c1.098,0,1.531-0.725,1.531-2.029c0-1.43-0.621-1.906-1.531-1.906h-0.787V13.199z"/>
		<path fill="#4A4B4C" d="M123.092,7.09l3.127,13.779h-2.857l-0.559-2.967h-2.734l-0.539,2.967h-2.547L120.15,7.09H123.092z
			 M122.49,15.682l-0.766-3.684c-0.123-0.559-0.227-1.076-0.291-2.318c-0.082,0.578-0.164,1.346-0.33,2.193l-0.746,3.809H122.49z"/>
		<path fill="#4A4B4C" d="M125.949,7.09h2.941l1.117,6.711c0.041,0.248,0.311,2.086,0.455,3.709
			c0.063-0.986,0.209-2.363,0.436-3.709L132.1,7.09h2.443l-2.898,13.779h-2.879L125.949,7.09z"/>
		<path fill="#4A4B4C" d="M135.951,7.09h2.773l2.238,6.338c0.227,0.641,0.414,1.574,0.662,2.727c-0.104-1.4-0.207-3.514-0.207-4.197
			V7.09h2.299v13.779h-2.299l-2.588-7.027c-0.354-0.953-0.643-2.113-0.809-2.838c0.104,1.242,0.229,3.5,0.229,4.08v5.785h-2.299
			V7.09z"/>
		<path fill="#4A4B4C" d="M146.242,7.09h2.838v13.779h-2.838V7.09z"/>
		<path fill="#4A4B4C" d="M151.605,7.09h2.838v4.514c0,0.166-0.063,1.1-0.104,1.637c0.082-0.311,0.311-1.139,0.518-1.574l2.07-4.576
			h2.775l-2.795,5.115l3.209,8.664h-2.92l-1.947-6.199l-0.807,1.834v4.365h-2.838V7.09z"/>
		<path fill="#4A4B4C" d="M169.332,14.09c0,4.059-0.932,6.986-4.35,6.986c-2.152,0-2.961-1.303-3.125-1.57
			c-0.893-1.439-1.162-3.455-1.162-5.664c0-4.227,1.1-6.959,4.35-6.959C168.381,6.883,169.332,9.906,169.332,14.09z M163.99,10.217
			c-0.25,0.684-0.291,2.176-0.291,3.914c0,1.18,0,2.516,0.248,3.482c0.146,0.557,0.395,1.008,1.098,1.008
			c0.768,0,0.994-0.494,1.119-1.213c0.166-0.945,0.166-3.359,0.166-3.545c0-0.85,0-2.797-0.27-3.625
			c-0.229-0.684-0.539-0.891-1.078-0.891C164.549,9.348,164.217,9.596,163.99,10.217z"/>
		<path fill="#4A4B4C" d="M170.305,7.09h2.941l1.117,6.711c0.041,0.248,0.311,2.086,0.455,3.709
			c0.064-0.986,0.209-2.363,0.436-3.709l1.201-6.711h2.443L176,20.869h-2.879L170.305,7.09z"/>
	</g>
	<g>
		<path fill="#0093B7" d="M27.756,9.967l-1.162-2.836h-5.896V1.174L17.893,0l-4.016,4.057L9.863,0L7.059,1.174v5.957H1.162L0,9.967
			l4.016,4.057L0,18.059l1.162,2.822h5.896v5.955l2.805,1.176l4.014-4.057l4.016,4.057l2.805-1.176v-5.955h5.896l1.162-2.822
			l-4.016-4.035L27.756,9.967z M16.684,16.846L16.684,16.846l-2.807,1.168l-2.805-1.168L9.91,14.023l1.162-2.834l0,0l2.805-1.176
			l2.807,1.176l1.162,2.834L16.684,16.846z"/>
	</g>
	<g>
		<path fill="#4A4B4C" d="M39.785,26.498c-0.164,1.107-0.924,1.439-1.59,1.439c-1.41,0-1.68-1.439-1.68-2.162
			c0-1.088,0.504-2.156,1.703-2.156c0.893,0,1.416,0.564,1.566,1.484l-0.705,0.074c-0.074-0.332-0.219-0.949-0.854-0.949
			c-0.844,0-0.893,1.15-0.893,1.527c0,1.201,0.477,1.547,0.916,1.547c0.396,0,0.768-0.314,0.83-0.887L39.785,26.498z"/>
		<path fill="#4A4B4C" d="M43.254,27.938c-1.322,0-1.768-1.225-1.768-2.174c0-1.133,0.641-2.145,1.799-2.145
			c1.182,0,1.766,1.031,1.766,2.156C45.051,27.059,44.354,27.938,43.254,27.938z M44.025,24.688
			c-0.213-0.434-0.584-0.459-0.754-0.459c-0.793,0-0.969,0.811-0.969,1.559c0,0.498,0.082,1.541,0.957,1.541
			c0.377,0,0.66-0.232,0.785-0.484c0.102-0.201,0.189-0.479,0.189-1.074C44.234,25.6,44.221,25.084,44.025,24.688z"/>
		<path fill="#4A4B4C" d="M50.396,27.875v-3.672l-1.162,3.672h-0.396l-1.162-3.672v3.672h-0.617v-4.193h1.182l0.875,2.703
			l0.867-2.703h1.188v4.193H50.396z"/>
		<path fill="#4A4B4C" d="M56.736,27.875v-3.672l-1.162,3.672h-0.396l-1.164-3.672v3.672h-0.615v-4.193h1.182l0.875,2.703
			l0.867-2.703h1.188v4.193H56.736z"/>
		<path fill="#4A4B4C" d="M62.627,26.379c0,0.459,0,0.98-0.592,1.346c-0.332,0.201-0.734,0.213-0.867,0.213
			c-0.25,0-0.822-0.051-1.125-0.402c-0.314-0.377-0.334-0.729-0.334-1.1v-2.754h0.773v2.697c0,0.246,0.033,0.521,0.184,0.68
			c0.139,0.145,0.377,0.219,0.59,0.219c0.24,0,0.51-0.094,0.623-0.258c0.125-0.176,0.145-0.439,0.145-0.641v-2.697h0.604V26.379z"/>
		<path fill="#4A4B4C" d="M67.982,27.875h-0.691l-1.641-2.678c-0.045-0.07-0.195-0.391-0.232-0.465v3.143h-0.604v-4.193h0.836
			l1.471,2.471c0.012,0.031,0.113,0.213,0.258,0.49v-2.961h0.604V27.875z"/>
		<path fill="#4A4B4C" d="M70.201,27.875v-4.193h0.754v4.193H70.201z"/>
		<path fill="#4A4B4C" d="M76.242,26.498c-0.162,1.107-0.924,1.439-1.59,1.439c-1.408,0-1.678-1.439-1.678-2.162
			c0-1.088,0.502-2.156,1.703-2.156c0.893,0,1.414,0.564,1.564,1.484l-0.703,0.074c-0.076-0.332-0.221-0.949-0.855-0.949
			c-0.842,0-0.893,1.15-0.893,1.527c0,1.201,0.479,1.547,0.918,1.547c0.396,0,0.768-0.314,0.83-0.887L76.242,26.498z"/>
		<path fill="#4A4B4C" d="M81.408,27.875h-0.805l-0.34-1h-1.609l-0.328,1H77.68l1.396-4.193H80L81.408,27.875z M80.063,26.271
			l-0.609-1.873l-0.611,1.873H80.063z"/>
		<path fill="#4A4B4C" d="M83.543,27.875v-3.547H82.43v-0.646h3.037v0.646h-1.113v3.547H83.543z"/>
		<path fill="#4A4B4C" d="M87.242,27.875v-4.193h0.754v4.193H87.242z"/>
		<path fill="#4A4B4C" d="M91.768,27.938c-1.316,0-1.764-1.225-1.764-2.174c0-1.133,0.641-2.145,1.795-2.145
			c1.182,0,1.766,1.031,1.766,2.156C93.564,27.059,92.867,27.938,91.768,27.938z M92.541,24.688
			c-0.215-0.434-0.586-0.459-0.756-0.459c-0.789,0-0.967,0.811-0.967,1.559c0,0.498,0.082,1.541,0.955,1.541
			c0.377,0,0.66-0.232,0.785-0.484c0.102-0.201,0.189-0.479,0.189-1.074C92.748,25.6,92.734,25.084,92.541,24.688z"/>
		<path fill="#4A4B4C" d="M98.742,27.875h-0.691l-1.641-2.678c-0.045-0.07-0.195-0.391-0.232-0.465v3.143h-0.605v-4.193h0.838
			l1.471,2.471c0.012,0.031,0.113,0.213,0.258,0.49v-2.961h0.604V27.875z"/>
		<path fill="#4A4B4C" d="M107.184,27.875h-0.332l-0.232-0.564c-0.314,0.502-0.711,0.627-1.133,0.627
			c-1.541,0-1.703-1.678-1.703-2.162c0-0.906,0.439-2.156,1.791-2.156c0.383,0,0.83,0.094,1.201,0.533
			c0.252,0.289,0.309,0.555,0.359,0.75l-0.662,0.111c-0.043-0.176-0.188-0.766-0.879-0.766c-0.359,0-0.598,0.182-0.717,0.346
			c-0.139,0.189-0.295,0.465-0.295,1.131c0,0.754,0.168,1.592,0.998,1.592c0.484,0,0.9-0.359,0.893-0.975h-0.867V25.73h1.578V27.875
			z"/>
		<path fill="#4A4B4C" d="M111.813,27.875l-0.654-1.723h-1.063v1.723h-0.754v-4.193h1.816c0.521,0,0.836,0.1,1.094,0.326
			c0.215,0.195,0.377,0.479,0.377,0.906c0,0.785-0.539,1.018-0.754,1.113l0.736,1.848H111.813z M110.096,25.549h0.943
			c0.371,0,0.805-0.125,0.805-0.646c0-0.316-0.207-0.617-0.742-0.617h-1.006V25.549z"/>
		<path fill="#4A4B4C" d="M118.051,27.875h-0.805l-0.34-1h-1.609l-0.326,1h-0.648l1.396-4.193h0.924L118.051,27.875z
			 M116.705,26.271l-0.609-1.873l-0.609,1.873H116.705z"/>
		<path fill="#4A4B4C" d="M119.852,27.875v-4.193h1.717c0.357,0,0.604,0.037,0.881,0.207c0.402,0.252,0.564,0.648,0.564,1.037
			c0,0.824-0.641,1.289-1.357,1.289h-1.051v1.66H119.852z M120.605,25.566h0.9c0.547,0,0.717-0.332,0.717-0.621
			c0-0.17-0.063-0.303-0.113-0.377c-0.113-0.184-0.334-0.258-0.674-0.258h-0.83V25.566z"/>
		<path fill="#4A4B4C" d="M127.979,27.875h-0.754v-1.816h-1.604v1.816h-0.756v-4.193h0.756v1.729h1.604v-1.729h0.754V27.875z"/>
		<path fill="#4A4B4C" d="M130.197,27.875v-4.193h0.754v4.193H130.197z"/>
		<path fill="#4A4B4C" d="M136.24,26.498c-0.164,1.107-0.926,1.439-1.592,1.439c-1.408,0-1.678-1.439-1.678-2.162
			c0-1.088,0.502-2.156,1.703-2.156c0.893,0,1.414,0.564,1.566,1.484l-0.705,0.074c-0.076-0.332-0.221-0.949-0.855-0.949
			c-0.842,0-0.893,1.15-0.893,1.527c0,1.201,0.479,1.547,0.918,1.547c0.396,0,0.768-0.314,0.83-0.887L136.24,26.498z"/>
		<path fill="#4A4B4C" d="M141.154,23.682h1.547c0.238,0,0.785,0.006,1.295,0.521c0.408,0.416,0.598,0.986,0.598,1.572
			c0,0.887-0.41,1.414-0.697,1.672c-0.178,0.158-0.648,0.428-1.365,0.428h-1.377V23.682z M141.928,27.26h0.635
			c0.654,0,1.213-0.504,1.213-1.516c0-0.768-0.408-1.465-1.125-1.465h-0.723V27.26z"/>
		<path fill="#4A4B4C" d="M146.59,27.875v-4.193h2.697v0.623h-1.943v1.137h1.559v0.609h-1.559v1.176h1.969v0.648H146.59z"/>
		<path fill="#4A4B4C" d="M151.646,26.705c0.037,0.15,0.113,0.422,0.49,0.541c0.207,0.07,0.385,0.082,0.521,0.082
			c0.699,0,0.836-0.365,0.836-0.553c0-0.396-0.326-0.498-0.516-0.547l-0.936-0.24c-0.611-0.156-0.906-0.584-0.906-1.119
			c0-0.793,0.643-1.25,1.484-1.25c0.414,0,0.824,0.105,1.15,0.365c0.252,0.199,0.314,0.4,0.352,0.539l-0.717,0.184
			c-0.049-0.146-0.176-0.479-0.773-0.479c-0.578,0-0.723,0.309-0.723,0.521c0,0.326,0.371,0.447,0.586,0.502l0.709,0.178
			c0.359,0.094,1.088,0.295,1.088,1.195c0,0.828-0.711,1.313-1.666,1.313c-0.502,0-0.943-0.119-1.289-0.396
			c-0.283-0.225-0.357-0.482-0.42-0.678L151.646,26.705z"/>
		<path fill="#4A4B4C" d="M156.258,27.875v-4.193h0.754v4.193H156.258z"/>
		<path fill="#4A4B4C" d="M162.422,27.875h-0.332l-0.232-0.564c-0.314,0.502-0.711,0.627-1.133,0.627
			c-1.541,0-1.703-1.678-1.703-2.162c0-0.906,0.439-2.156,1.791-2.156c0.383,0,0.83,0.094,1.201,0.533
			c0.252,0.289,0.309,0.555,0.359,0.75l-0.662,0.111c-0.043-0.176-0.188-0.766-0.879-0.766c-0.359,0-0.598,0.182-0.717,0.346
			c-0.139,0.189-0.295,0.465-0.295,1.131c0,0.754,0.168,1.592,0.998,1.592c0.484,0,0.9-0.359,0.893-0.975h-0.867V25.73h1.578V27.875
			z"/>
		<path fill="#4A4B4C" d="M167.748,27.875h-0.691l-1.643-2.678c-0.043-0.07-0.193-0.391-0.23-0.465v3.143h-0.605v-4.193h0.836
			l1.473,2.471c0.012,0.031,0.113,0.213,0.258,0.49v-2.961h0.604V27.875z"/>
		<path fill="#4A4B4C" d="M169.969,27.875v-4.193h2.697v0.623h-1.943v1.137h1.559v0.609h-1.559v1.176h1.969v0.648H169.969z"/>
		<path fill="#4A4B4C" d="M177.131,27.875l-0.652-1.723h-1.063v1.723h-0.756v-4.193h1.818c0.521,0,0.836,0.1,1.094,0.326
			c0.213,0.195,0.377,0.479,0.377,0.906c0,0.785-0.541,1.018-0.754,1.113l0.734,1.848H177.131z M175.416,25.549h0.941
			c0.371,0,0.805-0.125,0.805-0.646c0-0.316-0.207-0.617-0.74-0.617h-1.006V25.549z"/>
	</g>
</g>
<g>
</g>
<g>
</g>
<g>
</g>
<g>
</g>
<g>
</g>
<g>
</g>
</svg>
