<?xml version="1.0" encoding="utf-8"?>
<!-- Generator: Adobe Illustrator 16.0.0, SVG Export Plug-In . SVG Version: 6.00 Build 0)  -->
<svg version="1.2" baseProfile="tiny" id="Layer_1" xmlns="http://www.w3.org/2000/svg" xmlns:xlink="http://www.w3.org/1999/xlink"
	 x="0px" y="0px" width="100%" height="100%" viewBox="0 0 800.187 1029.285" overflow="scroll" xml:space="preserve">
<g>
	<polygon fill="#F2F2F2" points="437.641,315.304 400.993,225.872 215.077,225.872 215.077,38.017 126.601,1 0,128.91 0,316.78
		88.478,353.844 125.123,443.214 88.478,532.229 0,569.049 0,756.454 126.601,884.35 215.077,847.271 215.077,659.479
		400.993,659.479 437.641,570.478 311.008,443.244 	"/>
	<polygon fill="#F2F2F2" points="800.155,714.997 711.679,678.166 675.063,589.149 711.679,499.779 800.155,462.702
		800.187,462.715 800.187,274.846 800.155,274.878 673.553,146.936 585.14,183.953 585.14,371.808 399.193,371.808 393.343,386.087
		362.546,461.239 489.179,589.18 362.546,716.413 399.193,805.414 585.106,805.414 585.106,993.207 673.553,1030.285
		800.155,902.358 800.187,902.391 800.187,714.984 	"/>
</g>
<g>
</g>
<g>
</g>
<g>
</g>
<g>
</g>
<g>
</g>
<g>
</g>
</svg>
